<svg id="图层_1" data-name="图层 1" xmlns="http://www.w3.org/2000/svg" viewBox="0 0 15.41 15.41"><path d="M7.91.38a7.71,7.71,0,1,0,7.71,7.71A7.71,7.71,0,0,0,7.91.38Zm0,14.15a6.44,6.44,0,1,1,6.44-6.44A6.44,6.44,0,0,1,7.91,14.53Zm2.91-6.64a2.16,2.16,0,0,0,.39-1.26,2,2,0,0,0-1.9-2.06H9V3a.16.16,0,0,0-.16-.16H8.3A.17.17,0,0,0,8.13,3v1.6H7.25V3a.16.16,0,0,0-.16-.16H6.54A.16.16,0,0,0,6.37,3v1.6H4.55a.16.16,0,0,0-.16.16v.56a.16.16,0,0,0,.15.16,1,1,0,0,1,1,1V9.85a.79.79,0,0,1-.76.87.16.16,0,0,0-.14.14l-.11.56a.16.16,0,0,0,.16.19H6.37v1.6a.16.16,0,0,0,.17.16h.55a.16.16,0,0,0,.16-.16v-1.6h.88v1.6a.17.17,0,0,0,.17.16h.55A.16.16,0,0,0,9,13.21v-1.6h.74a2,2,0,0,0,1.9-2A2.07,2.07,0,0,0,10.82,7.89Zm-3.57-2H8.6a.91.91,0,1,1,0,1.81H7.25ZM9,10.35H7.25V8.53H9a.91.91,0,0,1,0,1.82Z" transform="translate(-0.21 -0.38)"/></svg>